<svg id="visual" viewBox="0 0 900 600" width="900" height="600" xmlns="http://www.w3.org/2000/svg" xmlns:xlink="http://www.w3.org/1999/xlink" version="1.1"><g transform="translate(469.86135368481314 302.1495158004021)"><path d="M113.3 -141.9C146.3 -107.4 172.1 -71.1 180.3 -30.9C188.5 9.4 179.1 53.7 157.4 90.4C135.6 127 101.5 156.1 57.6 182.7C13.7 209.2 -40 233.4 -91.2 225.6C-142.4 217.8 -191.2 178.2 -211 129C-230.8 79.8 -221.8 21.2 -213.9 -40.2C-206.1 -101.6 -199.5 -165.7 -164 -199.8C-128.6 -233.9 -64.3 -237.9 -12.1 -223.6C40.2 -209.2 80.4 -176.4 113.3 -141.9" fill="#CCCCCC"></path></g></svg>